<?xml version="1.0" encoding="UTF-8"?>
<svg fill="none" viewBox="0 0 40 40" xmlns="http://www.w3.org/2000/svg">
<rect width="40" height="40" rx="20" fill="#FF3E79"/>
<path d="m28 11h-16c-1.1 0-1.99 0.9-1.99 2l-0.01 18 4-5h14c1.1 0 2-0.9 2-2v-11c0-1.1-0.9-2-2-2zm-7 11h-6c-0.55 0-1-0.45-1-1s0.45-1 1-1h6c0.55 0 1 0.45 1 1s-0.45 1-1 1zm4-5h-10c-0.55 0-1-0.45-1-1s0.45-1 1-1h10c0.55 0 1 0.45 1 1s-0.45 1-1 1z" clip-rule="evenodd" fill="#fff" fill-rule="evenodd"/>
<mask x="10" y="11" width="20" height="20" style="mask-type:alpha" maskUnits="userSpaceOnUse">
<path d="m28 11h-16c-1.1 0-1.99 0.9-1.99 2l-0.01 18 4-5h14c1.1 0 2-0.9 2-2v-11c0-1.1-0.9-2-2-2zm-7 11h-6c-0.55 0-1-0.45-1-1s0.45-1 1-1h6c0.55 0 1 0.45 1 1s-0.45 1-1 1zm4-5h-10c-0.55 0-1-0.45-1-1s0.45-1 1-1h10c0.55 0 1 0.45 1 1s-0.45 1-1 1z" clip-rule="evenodd" fill="#fff" fill-rule="evenodd"/>
</mask>
</svg>
