<?xml version="1.0" encoding="UTF-8"?>
<svg viewBox="0 0 40 40" xmlns="http://www.w3.org/2000/svg">
<rect width="40" height="40" rx="20" fill="#FF3E79"/>
<path d="m13.794 12.257c-0.3905-0.3905-1.0237-0.3905-1.4142 0l-0.1222 0.1222c-0.3905 0.3905-0.3905 1.0237 0 1.4142l6.2065 6.2065-6.2065 6.2065c-0.3905 0.3905-0.3905 1.0237 0 1.4142l0.1222 0.1222c0.3905 0.3905 1.0237 0.3905 1.4142 0l6.2065-6.2065 6.2065 6.2065c0.3905 0.3905 1.0237 0.3905 1.4142 0l0.1222-0.1222c0.3905-0.3905 0.3905-1.0237 0-1.4142l-6.2065-6.2065 6.2065-6.2065c0.3905-0.3905 0.3905-1.0237 0-1.4142l-0.1222-0.1222c-0.3905-0.3905-1.0237-0.3905-1.4142 0l-6.2065 6.2065-6.2065-6.2065z" clip-rule="evenodd" fill="#fff" fill-rule="evenodd"/>
</svg>
