<?xml version="1.0" encoding="UTF-8"?>
<svg fill="none" viewBox="0 0 24 24" xmlns="http://www.w3.org/2000/svg">
<path d="m14.5 7.5001-2.5 2.5-2.5-2.5c-0.27615-0.27615-0.72386-0.27615-1 0-0.27615 0.27614-0.27615 0.72385 0 1l2.7929 2.7929c0.3905 0.3905 1.0237 0.3905 1.4142 0l2.7929-2.7929c0.2761-0.27615 0.2761-0.72386 0-1-0.2762-0.27615-0.7239-0.27615-1 0zm0 6-2.5 2.5-2.5-2.5c-0.27615-0.2762-0.72386-0.2762-1 0-0.27615 0.2761-0.27615 0.7238 0 1l2.7929 2.7929c0.3905 0.3905 1.0237 0.3905 1.4142 0l2.7929-2.7929c0.2761-0.2762 0.2761-0.7239 0-1-0.2762-0.2762-0.7239-0.2762-1 0z" clip-rule="evenodd" fill="#41F6D7" fill-rule="evenodd"/>
</svg>
